<mxfile host="app.diagrams.net" modified="2023-05-28T03:42:57.169Z" agent="Mozilla/5.0 (Windows NT 10.0; Win64; x64) AppleWebKit/537.36 (KHTML, like Gecko) Chrome/113.0.0.0 Safari/537.36" etag="WXaCou78DwuPprz4wW0y" version="21.3.2" type="github">
  <diagram name="第 1 页" id="FCN_Pj4akqJKRI1wyNAn">
    <mxGraphModel dx="1434" dy="796" grid="1" gridSize="10" guides="1" tooltips="1" connect="1" arrows="1" fold="1" page="1" pageScale="1" pageWidth="827" pageHeight="1169" math="0" shadow="0">
      <root>
        <mxCell id="0" />
        <mxCell id="1" parent="0" />
        <mxCell id="AUUao6iYg2lkOl09FbLs-27" style="edgeStyle=orthogonalEdgeStyle;rounded=0;orthogonalLoop=1;jettySize=auto;html=1;" edge="1" parent="1" source="AUUao6iYg2lkOl09FbLs-1" target="AUUao6iYg2lkOl09FbLs-22">
          <mxGeometry relative="1" as="geometry" />
        </mxCell>
        <mxCell id="AUUao6iYg2lkOl09FbLs-1" value="&lt;font style=&quot;font-size: 18px;&quot;&gt;DataSource 1&lt;/font&gt;" style="rounded=1;whiteSpace=wrap;html=1;" vertex="1" parent="1">
          <mxGeometry x="140" y="490" width="150" height="60" as="geometry" />
        </mxCell>
        <mxCell id="AUUao6iYg2lkOl09FbLs-28" style="edgeStyle=orthogonalEdgeStyle;rounded=0;orthogonalLoop=1;jettySize=auto;html=1;" edge="1" parent="1" source="AUUao6iYg2lkOl09FbLs-2" target="AUUao6iYg2lkOl09FbLs-23">
          <mxGeometry relative="1" as="geometry" />
        </mxCell>
        <mxCell id="AUUao6iYg2lkOl09FbLs-2" value="&lt;font style=&quot;font-size: 18px;&quot;&gt;DataSource 2&lt;/font&gt;" style="rounded=1;whiteSpace=wrap;html=1;" vertex="1" parent="1">
          <mxGeometry x="330" y="490" width="150" height="60" as="geometry" />
        </mxCell>
        <mxCell id="AUUao6iYg2lkOl09FbLs-29" style="edgeStyle=orthogonalEdgeStyle;rounded=0;orthogonalLoop=1;jettySize=auto;html=1;entryX=0.5;entryY=0;entryDx=0;entryDy=0;" edge="1" parent="1" source="AUUao6iYg2lkOl09FbLs-3" target="AUUao6iYg2lkOl09FbLs-24">
          <mxGeometry relative="1" as="geometry" />
        </mxCell>
        <mxCell id="AUUao6iYg2lkOl09FbLs-3" value="&lt;font style=&quot;font-size: 18px;&quot;&gt;DataSource 3&lt;/font&gt;" style="rounded=1;whiteSpace=wrap;html=1;" vertex="1" parent="1">
          <mxGeometry x="520" y="490" width="150" height="60" as="geometry" />
        </mxCell>
        <mxCell id="AUUao6iYg2lkOl09FbLs-12" style="edgeStyle=orthogonalEdgeStyle;rounded=0;orthogonalLoop=1;jettySize=auto;html=1;entryX=0.5;entryY=0;entryDx=0;entryDy=0;" edge="1" parent="1" source="AUUao6iYg2lkOl09FbLs-5" target="AUUao6iYg2lkOl09FbLs-2">
          <mxGeometry relative="1" as="geometry" />
        </mxCell>
        <mxCell id="AUUao6iYg2lkOl09FbLs-13" style="edgeStyle=orthogonalEdgeStyle;rounded=0;orthogonalLoop=1;jettySize=auto;html=1;entryX=0.5;entryY=0;entryDx=0;entryDy=0;exitX=0.5;exitY=1;exitDx=0;exitDy=0;" edge="1" parent="1" source="AUUao6iYg2lkOl09FbLs-5" target="AUUao6iYg2lkOl09FbLs-1">
          <mxGeometry relative="1" as="geometry" />
        </mxCell>
        <mxCell id="AUUao6iYg2lkOl09FbLs-14" style="edgeStyle=orthogonalEdgeStyle;rounded=0;orthogonalLoop=1;jettySize=auto;html=1;exitX=0.5;exitY=1;exitDx=0;exitDy=0;" edge="1" parent="1" source="AUUao6iYg2lkOl09FbLs-5" target="AUUao6iYg2lkOl09FbLs-3">
          <mxGeometry relative="1" as="geometry" />
        </mxCell>
        <mxCell id="AUUao6iYg2lkOl09FbLs-33" style="edgeStyle=orthogonalEdgeStyle;rounded=0;orthogonalLoop=1;jettySize=auto;html=1;dashed=1;" edge="1" parent="1" source="AUUao6iYg2lkOl09FbLs-5" target="AUUao6iYg2lkOl09FbLs-30">
          <mxGeometry relative="1" as="geometry" />
        </mxCell>
        <mxCell id="AUUao6iYg2lkOl09FbLs-5" value="&lt;font style=&quot;font-size: 18px;&quot;&gt;DataSource 实例&lt;/font&gt;" style="rounded=1;whiteSpace=wrap;html=1;" vertex="1" parent="1">
          <mxGeometry x="322.5" y="350" width="165" height="60" as="geometry" />
        </mxCell>
        <mxCell id="AUUao6iYg2lkOl09FbLs-20" style="edgeStyle=orthogonalEdgeStyle;rounded=0;orthogonalLoop=1;jettySize=auto;html=1;entryX=0;entryY=0.5;entryDx=0;entryDy=0;dashed=1;" edge="1" parent="1" source="AUUao6iYg2lkOl09FbLs-10" target="AUUao6iYg2lkOl09FbLs-19">
          <mxGeometry relative="1" as="geometry" />
        </mxCell>
        <mxCell id="AUUao6iYg2lkOl09FbLs-21" style="edgeStyle=orthogonalEdgeStyle;rounded=0;orthogonalLoop=1;jettySize=auto;html=1;entryX=0;entryY=0.5;entryDx=0;entryDy=0;dashed=1;" edge="1" parent="1" source="AUUao6iYg2lkOl09FbLs-10" target="AUUao6iYg2lkOl09FbLs-15">
          <mxGeometry relative="1" as="geometry" />
        </mxCell>
        <mxCell id="AUUao6iYg2lkOl09FbLs-32" style="edgeStyle=orthogonalEdgeStyle;rounded=0;orthogonalLoop=1;jettySize=auto;html=1;" edge="1" parent="1" source="AUUao6iYg2lkOl09FbLs-10" target="AUUao6iYg2lkOl09FbLs-5">
          <mxGeometry relative="1" as="geometry" />
        </mxCell>
        <mxCell id="AUUao6iYg2lkOl09FbLs-10" value="&lt;font style=&quot;font-size: 18px;&quot;&gt;方法调用&lt;/font&gt;" style="rounded=1;whiteSpace=wrap;html=1;" vertex="1" parent="1">
          <mxGeometry x="345" y="230" width="120" height="60" as="geometry" />
        </mxCell>
        <mxCell id="AUUao6iYg2lkOl09FbLs-15" value="&lt;font style=&quot;font-size: 18px;&quot;&gt;基于注解的声明式数据源切换&lt;/font&gt;" style="whiteSpace=wrap;html=1;rounded=1;" vertex="1" parent="1">
          <mxGeometry x="590" y="190" width="130" height="60" as="geometry" />
        </mxCell>
        <mxCell id="AUUao6iYg2lkOl09FbLs-19" value="&lt;font style=&quot;font-size: 18px;&quot;&gt;编程式的手动数据源切换&lt;/font&gt;" style="whiteSpace=wrap;html=1;rounded=1;" vertex="1" parent="1">
          <mxGeometry x="590" y="270" width="130" height="60" as="geometry" />
        </mxCell>
        <mxCell id="AUUao6iYg2lkOl09FbLs-22" value="&lt;font style=&quot;font-size: 18px;&quot;&gt;DataBase 1&lt;/font&gt;" style="rounded=0;whiteSpace=wrap;html=1;" vertex="1" parent="1">
          <mxGeometry x="155" y="610" width="120" height="60" as="geometry" />
        </mxCell>
        <mxCell id="AUUao6iYg2lkOl09FbLs-23" value="&lt;font style=&quot;font-size: 18px;&quot;&gt;DataBase 2&lt;/font&gt;" style="rounded=0;whiteSpace=wrap;html=1;" vertex="1" parent="1">
          <mxGeometry x="345" y="610" width="120" height="60" as="geometry" />
        </mxCell>
        <mxCell id="AUUao6iYg2lkOl09FbLs-24" value="&lt;font style=&quot;font-size: 18px;&quot;&gt;DataBase 3&lt;/font&gt;" style="rounded=0;whiteSpace=wrap;html=1;" vertex="1" parent="1">
          <mxGeometry x="535" y="610" width="120" height="60" as="geometry" />
        </mxCell>
        <mxCell id="AUUao6iYg2lkOl09FbLs-30" value="&lt;span style=&quot;font-size: 18px;&quot;&gt;选择一个本次方法调用使用的实际数据源实例&lt;/span&gt;" style="whiteSpace=wrap;html=1;rounded=1;" vertex="1" parent="1">
          <mxGeometry x="590" y="345" width="140" height="70" as="geometry" />
        </mxCell>
      </root>
    </mxGraphModel>
  </diagram>
</mxfile>
